<svg width="290.028125px" height="68.6px" xmlns="http://www.w3.org/2000/svg" viewBox="104.9859375 40.7 290.028125 68.6" style="background: rgba(0, 0, 0, 0);" preserveAspectRatio="xMidYMid"><defs><linearGradient id="editing-shiny-gradient" x1="0.04322727117869957" x2="0.9567727288213004" y1="0.2966316784620999" y2="0.7033683215379001" gradientUnits="objectBoundingBox"><stop offset="0.0" stop-color="#272aea"></stop><stop offset="0.5" stop-color="#ffb200"></stop><stop offset="1.0" stop-color="rgba(9.982199672321771%,9.766756513926337%,10.11011904761906%,0.41)"></stop></linearGradient><linearGradient id="editing-shiny-gradient2" x1="0" x2="0" y1="0" y2="1"><stop offset="0.2" stop-color="#fff" stop-opacity="0.8"></stop><stop offset="0.8" stop-color="#fff" stop-opacity="0"></stop></linearGradient><filter id="editing-shiny2" x="-100%" y="-100%" width="300%" height="300%"><feMorphology operator="erode" radius="2"></feMorphology></filter><filter id="editing-shiny" x="-100%" y="-100%" width="300%" height="300%"><feFlood flood-color="#fff" result="flood"></feFlood><feConvolveMatrix in="SourceGraphic" result="conv" order="8,8" divisor="1" kernelMatrix="0 0 0 0 0 0 0 0 0 0 0 1 1 0 0 0 0 0 0 1 1 0 0 0 0 0 1 0 0 1 0 0 0 0 1 0 0 1 0 0 0 1 0 0 0 0 1 0 0 1 1 0 0 1 1 0 0 0 0 1 1 0 0 0 "></feConvolveMatrix><feOffset dx="0" dy="4" in="conv" result="offset"></feOffset><feComposite operator="in" in="flood" in2="offset" result="comp"></feComposite><feGaussianBlur in="offset" stdDeviation="3" result="shadow"></feGaussianBlur><feColorMatrix in="shadow" type="matrix" values="0.7 0 0 0 0  0 0.7 0 0 0  0 0 0.7 0 0  0 0 0 0.3 0" result="dark-shadow"></feColorMatrix><feOffset dx="0" dy="4" in="dark-shadow" result="offset-shadow"></feOffset><feOffset dx="0" dy="2" in="conv" result="offset-2"></feOffset><feComposite operator="out" in="offset" in2="offset-2" result="edge-diff"></feComposite><feGaussianBlur in="edge-diff" stdDeviation="1" result="edge-blur"></feGaussianBlur><feColorMatrix in="edge-blur" result="edge-shadow" type="matrix" values="0 0 0 0 0  0 0 0 0 0  0 0 0 0 0  0 0 0 0.5 0"></feColorMatrix><feComposite operator="in" in="edge-shadow" in2="offset" result="edge-shadow-in"></feComposite><feOffset dx="0" dy="1" in="edge-shadow-in" result="edge-shadow-final"></feOffset><feMerge result="out"><feMergeNode in="offset-shadow"></feMergeNode><feMergeNode in="comp"></feMergeNode><feMergeNode in="edge-shadow-final"></feMergeNode><feMergeNode in="SourceGraphic"></feMergeNode></feMerge></filter></defs><g filter="url(#editing-shiny)"><g transform="translate(149.89500951766968, 85.51500225067139)"><path d="M20.07-3.55L20.07 0L3.86 0L3.86 0Q3.47 0 3.14-0.14L3.14-0.14L3.14-0.14Q2.82-0.27 2.58-0.51L2.58-0.51L2.58-0.51Q2.34-0.75 2.20-1.08L2.20-1.08L2.20-1.08Q2.06-1.41 2.06-1.79L2.06-1.79L2.06-19.61L5.62-19.61L5.62-3.55L20.07-3.55ZM26.26-19.61L26.26 0L22.71 0L22.71-19.61L26.26-19.61ZM46.63-11.59L46.63-8.01L35.40-8.01L35.40-11.59L46.63-11.59ZM48.22-19.61L48.22-16.05L33.97-16.05L33.97 0L30.42 0L30.42-17.81L30.42-17.81Q30.42-18.18 30.56-18.51L30.56-18.51L30.56-18.51Q30.69-18.84 30.93-19.09L30.93-19.09L30.93-19.09Q31.17-19.33 31.50-19.47L31.50-19.47L31.50-19.47Q31.83-19.61 32.21-19.61L32.21-19.61L48.22-19.61ZM68.81-19.61L68.81-16.05L60.98-16.05L60.98 0L57.42 0L57.42-16.05L49.57-16.05L49.57-19.61L68.81-19.61ZM96.74-11.59L96.74-8.01L85.50-8.01L85.50-11.59L96.74-11.59ZM98.33-19.61L98.33-16.05L84.08-16.05L84.08 0L80.53 0L80.53-17.81L80.53-17.81Q80.53-18.18 80.66-18.51L80.66-18.51L80.66-18.51Q80.80-18.84 81.04-19.09L81.04-19.09L81.04-19.09Q81.28-19.33 81.61-19.47L81.61-19.47L81.61-19.47Q81.94-19.61 82.32-19.61L82.32-19.61L98.33-19.61ZM104.41-21.03L104.41-17.81L100.86-17.81L100.86-21.03L104.41-21.03ZM104.41-14.78L104.41 0L100.86 0L100.86-14.78L104.41-14.78ZM124.20-8.20L124.20 0L120.64 0L120.64-8.20L120.64-8.20Q120.64-8.90 120.40-9.45L120.40-9.45L120.40-9.45Q120.16-10.01 119.75-10.40L119.75-10.40L119.75-10.40Q119.34-10.80 118.79-11.01L118.79-11.01L118.79-11.01Q118.23-11.22 117.59-11.22L117.59-11.22L111.37-11.22L111.37 0L107.82 0L107.82-13.02L107.82-13.02Q107.82-13.38 107.95-13.71L107.95-13.71L107.95-13.71Q108.09-14.03 108.34-14.27L108.34-14.27L108.34-14.27Q108.58-14.51 108.91-14.64L108.91-14.64L108.91-14.64Q109.24-14.78 109.61-14.78L109.61-14.78L117.62-14.78L117.62-14.78Q118.29-14.78 119.03-14.63L119.03-14.63L119.03-14.63Q119.78-14.48 120.51-14.14L120.51-14.14L120.51-14.14Q121.24-13.81 121.91-13.30L121.91-13.30L121.91-13.30Q122.57-12.78 123.08-12.05L123.08-12.05L123.08-12.05Q123.59-11.32 123.89-10.36L123.89-10.36L123.89-10.36Q124.20-9.41 124.20-8.20L124.20-8.20ZM142.57-9.88L142.57-4.89L142.57-4.89Q142.57-4.16 142.31-3.30L142.31-3.30L142.31-3.30Q142.05-2.45 141.47-1.72L141.47-1.72L141.47-1.72Q140.89-0.98 139.95-0.49L139.95-0.49L139.95-0.49Q139.02 0 137.68 0L137.68 0L131.26 0L131.26 0Q130.53 0 129.67-0.26L129.67-0.26L129.67-0.26Q128.82-0.52 128.08-1.10L128.08-1.10L128.08-1.10Q127.35-1.68 126.86-2.62L126.86-2.62L126.86-2.62Q126.37-3.55 126.37-4.89L126.37-4.89L126.37-4.89Q126.37-5.63 126.63-6.49L126.63-6.49L126.63-6.49Q126.89-7.36 127.47-8.09L127.47-8.09L127.47-8.09Q128.05-8.82 128.99-9.31L128.99-9.31L128.99-9.31Q129.92-9.80 131.26-9.80L131.26-9.80L137.68-9.80L137.68-6.41L131.26-6.41L131.26-6.41Q130.54-6.41 130.14-5.97L130.14-5.97L130.14-5.97Q129.75-5.52 129.75-4.87L129.75-4.87L129.75-4.87Q129.75-4.17 130.20-3.78L130.20-3.78L130.20-3.78Q130.66-3.39 131.29-3.39L131.29-3.39L137.68-3.39L137.68-3.39Q138.40-3.39 138.80-3.83L138.80-3.83L138.80-3.83Q139.19-4.27 139.19-4.92L139.19-4.92L139.19-9.88L139.19-9.88Q139.19-10.58 138.76-10.99L138.76-10.99L138.76-10.99Q138.33-11.40 137.68-11.40L137.68-11.40L129.87-11.40L129.87-14.78L137.68-14.78L137.68-14.78Q138.41-14.78 139.27-14.52L139.27-14.52L139.27-14.52Q140.12-14.26 140.85-13.68L140.85-13.68L140.85-13.68Q141.59-13.10 142.08-12.16L142.08-12.16L142.08-12.16Q142.57-11.22 142.57-9.88L142.57-9.88ZM161.98-8.20L161.98 0L158.43 0L158.43-8.20L158.43-8.20Q158.43-8.90 158.19-9.45L158.19-9.45L158.19-9.45Q157.95-10.01 157.54-10.40L157.54-10.40L157.54-10.40Q157.13-10.80 156.58-11.01L156.58-11.01L156.58-11.01Q156.02-11.22 155.38-11.22L155.38-11.22L149.16-11.22L149.16 0L145.61 0L145.61-13.02L145.61-13.02Q145.61-13.38 145.74-13.71L145.74-13.71L145.74-13.71Q145.88-14.03 146.13-14.27L146.13-14.27L146.13-14.27Q146.37-14.51 146.70-14.64L146.70-14.64L146.70-14.64Q147.03-14.78 147.40-14.78L147.40-14.78L155.41-14.78L155.41-14.78Q156.08-14.78 156.82-14.63L156.82-14.63L156.82-14.63Q157.57-14.48 158.30-14.14L158.30-14.14L158.30-14.14Q159.03-13.81 159.69-13.30L159.69-13.30L159.69-13.30Q160.36-12.78 160.87-12.05L160.87-12.05L160.87-12.05Q161.38-11.32 161.68-10.36L161.68-10.36L161.68-10.36Q161.98-9.41 161.98-8.20L161.98-8.20ZM179.42-3.55L179.42 0L169.78 0L169.78 0Q169.04 0 168.16-0.26L168.16-0.26L168.16-0.26Q167.29-0.52 166.54-1.11L166.54-1.11L166.54-1.11Q165.80-1.71 165.30-2.66L165.30-2.66L165.30-2.66Q164.80-3.61 164.80-4.99L164.80-4.99L164.80-9.80L164.80-9.80Q164.80-10.31 164.92-10.87L164.92-10.87L164.92-10.87Q165.03-11.43 165.28-11.98L165.28-11.98L165.28-11.98Q165.53-12.54 165.92-13.04L165.92-13.04L165.92-13.04Q166.30-13.55 166.86-13.93L166.86-13.93L166.86-13.93Q167.41-14.31 168.14-14.55L168.14-14.55L168.14-14.55Q168.86-14.78 169.78-14.78L169.78-14.78L179.42-14.78L179.42-11.22L169.78-11.22L169.78-11.22Q169.08-11.22 168.72-10.87L168.72-10.87L168.72-10.87Q168.36-10.51 168.36-9.78L168.36-9.78L168.36-4.99L168.36-4.99Q168.36-4.29 168.72-3.92L168.72-3.92L168.72-3.92Q169.09-3.55 169.80-3.55L169.80-3.55L179.42-3.55ZM198.15-9.88L198.15-9.88L198.15-9.88Q198.15-9.15 197.89-8.29L197.89-8.29L197.89-8.29Q197.63-7.44 197.05-6.71L197.05-6.71L197.05-6.71Q196.46-5.97 195.53-5.48L195.53-5.48L195.53-5.48Q194.59-4.99 193.25-4.99L193.25-4.99L186.84-4.99L186.84-8.37L193.25-8.37L193.25-8.37Q193.98-8.37 194.37-8.81L194.37-8.81L194.37-8.81Q194.77-9.26 194.77-9.91L194.77-9.91L194.77-9.91Q194.77-10.61 194.33-11.01L194.33-11.01L194.33-11.01Q193.88-11.40 193.25-11.40L193.25-11.40L186.84-11.40L186.84-11.40Q186.12-11.40 185.72-10.96L185.72-10.96L185.72-10.96Q185.32-10.51 185.32-9.86L185.32-9.86L185.32-4.89L185.32-4.89Q185.32-4.18 185.77-3.79L185.77-3.79L185.77-3.79Q186.21-3.39 186.87-3.39L186.87-3.39L193.25-3.39L193.25 0L186.84 0L186.84 0Q186.10 0 185.25-0.26L185.25-0.26L185.25-0.26Q184.39-0.52 183.66-1.10L183.66-1.10L183.66-1.10Q182.93-1.68 182.44-2.62L182.44-2.62L182.44-2.62Q181.95-3.55 181.95-4.89L181.95-4.89L181.95-9.88L181.95-9.88Q181.95-10.62 182.21-11.48L182.21-11.48L182.21-11.48Q182.46-12.33 183.05-13.06L183.05-13.06L183.05-13.06Q183.63-13.79 184.56-14.29L184.56-14.29L184.56-14.29Q185.50-14.78 186.84-14.78L186.84-14.78L193.25-14.78L193.25-14.78Q193.99-14.78 194.84-14.52L194.84-14.52L194.84-14.52Q195.70-14.26 196.43-13.68L196.43-13.68L196.43-13.68Q197.16-13.10 197.65-12.16L197.65-12.16L197.65-12.16Q198.15-11.22 198.15-9.88Z" fill="url(#editing-shiny-gradient)"></path></g></g><g filter="url(#editing-shiny2)"><g transform="translate(149.89500951766968, 85.51500415802002)"><path d="M20.07-3.55L20.07 0L3.86 0L3.86 0Q3.47 0 3.14-0.14L3.14-0.14L3.14-0.14Q2.82-0.27 2.58-0.51L2.58-0.51L2.58-0.51Q2.34-0.75 2.20-1.08L2.20-1.08L2.20-1.08Q2.06-1.41 2.06-1.79L2.06-1.79L2.06-19.61L5.62-19.61L5.62-3.55L20.07-3.55ZM26.26-19.61L26.26 0L22.71 0L22.71-19.61L26.26-19.61ZM46.63-11.59L46.63-8.01L35.40-8.01L35.40-11.59L46.63-11.59ZM48.22-19.61L48.22-16.05L33.97-16.05L33.97 0L30.42 0L30.42-17.81L30.42-17.81Q30.42-18.18 30.56-18.51L30.56-18.51L30.56-18.51Q30.69-18.84 30.93-19.09L30.93-19.09L30.93-19.09Q31.17-19.33 31.50-19.47L31.50-19.47L31.50-19.47Q31.83-19.61 32.21-19.61L32.21-19.61L48.22-19.61ZM68.81-19.61L68.81-16.05L60.98-16.05L60.98 0L57.42 0L57.42-16.05L49.57-16.05L49.57-19.61L68.81-19.61ZM96.74-11.59L96.74-8.01L85.50-8.01L85.50-11.59L96.74-11.59ZM98.33-19.61L98.33-16.05L84.08-16.05L84.08 0L80.53 0L80.53-17.81L80.53-17.81Q80.53-18.18 80.66-18.51L80.66-18.51L80.66-18.51Q80.80-18.84 81.04-19.09L81.04-19.09L81.04-19.09Q81.28-19.33 81.61-19.47L81.61-19.47L81.61-19.47Q81.94-19.61 82.32-19.61L82.32-19.61L98.33-19.61ZM104.41-21.03L104.41-17.81L100.86-17.81L100.86-21.03L104.41-21.03ZM104.41-14.78L104.41 0L100.86 0L100.86-14.78L104.41-14.78ZM124.20-8.20L124.20 0L120.64 0L120.64-8.20L120.64-8.20Q120.64-8.90 120.40-9.45L120.40-9.45L120.40-9.45Q120.16-10.01 119.75-10.40L119.75-10.40L119.75-10.40Q119.34-10.80 118.79-11.01L118.79-11.01L118.79-11.01Q118.23-11.22 117.59-11.22L117.59-11.22L111.37-11.22L111.37 0L107.82 0L107.82-13.02L107.82-13.02Q107.82-13.38 107.95-13.71L107.95-13.71L107.95-13.71Q108.09-14.03 108.34-14.27L108.34-14.27L108.34-14.27Q108.58-14.51 108.91-14.64L108.91-14.64L108.91-14.64Q109.24-14.78 109.61-14.78L109.61-14.78L117.62-14.78L117.62-14.78Q118.29-14.78 119.03-14.63L119.03-14.63L119.03-14.63Q119.78-14.48 120.51-14.14L120.51-14.14L120.51-14.14Q121.24-13.81 121.91-13.30L121.91-13.30L121.91-13.30Q122.57-12.78 123.08-12.05L123.08-12.05L123.08-12.05Q123.59-11.32 123.89-10.36L123.89-10.36L123.89-10.36Q124.20-9.41 124.20-8.20L124.20-8.20ZM142.57-9.88L142.57-4.89L142.57-4.89Q142.57-4.16 142.31-3.30L142.31-3.30L142.31-3.30Q142.05-2.45 141.47-1.72L141.47-1.72L141.47-1.72Q140.89-0.98 139.95-0.49L139.95-0.49L139.95-0.49Q139.02 0 137.68 0L137.68 0L131.26 0L131.26 0Q130.53 0 129.67-0.26L129.67-0.26L129.67-0.26Q128.82-0.52 128.08-1.10L128.08-1.10L128.08-1.10Q127.35-1.68 126.86-2.62L126.86-2.62L126.86-2.62Q126.37-3.55 126.37-4.89L126.37-4.89L126.37-4.89Q126.37-5.63 126.63-6.49L126.63-6.49L126.63-6.49Q126.89-7.36 127.47-8.09L127.47-8.09L127.47-8.09Q128.05-8.82 128.99-9.31L128.99-9.31L128.99-9.31Q129.92-9.80 131.26-9.80L131.26-9.80L137.68-9.80L137.68-6.41L131.26-6.41L131.26-6.41Q130.54-6.41 130.14-5.97L130.14-5.97L130.14-5.97Q129.75-5.52 129.75-4.87L129.75-4.87L129.75-4.87Q129.75-4.17 130.20-3.78L130.20-3.78L130.20-3.78Q130.66-3.39 131.29-3.39L131.29-3.39L137.68-3.39L137.68-3.39Q138.40-3.39 138.80-3.83L138.80-3.83L138.80-3.83Q139.19-4.27 139.19-4.92L139.19-4.92L139.19-9.88L139.19-9.88Q139.19-10.58 138.76-10.99L138.76-10.99L138.76-10.99Q138.33-11.40 137.68-11.40L137.68-11.40L129.87-11.40L129.87-14.78L137.68-14.78L137.68-14.78Q138.41-14.78 139.27-14.52L139.27-14.52L139.27-14.52Q140.12-14.26 140.85-13.68L140.85-13.68L140.85-13.68Q141.59-13.10 142.08-12.16L142.08-12.16L142.08-12.16Q142.57-11.22 142.57-9.88L142.57-9.88ZM161.98-8.20L161.98 0L158.43 0L158.43-8.20L158.43-8.20Q158.43-8.90 158.19-9.45L158.19-9.45L158.19-9.45Q157.95-10.01 157.54-10.40L157.54-10.40L157.54-10.40Q157.13-10.80 156.58-11.01L156.58-11.01L156.58-11.01Q156.02-11.22 155.38-11.22L155.38-11.22L149.16-11.22L149.16 0L145.61 0L145.61-13.02L145.61-13.02Q145.61-13.38 145.74-13.71L145.74-13.71L145.74-13.71Q145.88-14.03 146.13-14.27L146.13-14.27L146.13-14.27Q146.37-14.51 146.70-14.64L146.70-14.64L146.70-14.64Q147.03-14.78 147.40-14.78L147.40-14.78L155.41-14.78L155.41-14.78Q156.08-14.78 156.82-14.63L156.82-14.63L156.82-14.63Q157.57-14.48 158.30-14.14L158.30-14.14L158.30-14.14Q159.03-13.81 159.69-13.30L159.69-13.30L159.69-13.30Q160.36-12.78 160.87-12.05L160.87-12.05L160.87-12.05Q161.38-11.32 161.68-10.36L161.68-10.36L161.68-10.36Q161.98-9.41 161.98-8.20L161.98-8.20ZM179.42-3.55L179.42 0L169.78 0L169.78 0Q169.04 0 168.16-0.26L168.16-0.26L168.16-0.26Q167.29-0.52 166.54-1.11L166.54-1.11L166.54-1.11Q165.80-1.71 165.30-2.66L165.30-2.66L165.30-2.66Q164.80-3.61 164.80-4.99L164.80-4.99L164.80-9.80L164.80-9.80Q164.80-10.31 164.92-10.87L164.92-10.87L164.92-10.87Q165.03-11.43 165.28-11.98L165.28-11.98L165.28-11.98Q165.53-12.54 165.92-13.04L165.92-13.04L165.92-13.04Q166.30-13.55 166.86-13.93L166.86-13.93L166.86-13.93Q167.41-14.31 168.14-14.55L168.14-14.55L168.14-14.55Q168.86-14.78 169.78-14.78L169.78-14.78L179.42-14.78L179.42-11.22L169.78-11.22L169.78-11.22Q169.08-11.22 168.72-10.87L168.72-10.87L168.72-10.87Q168.36-10.51 168.36-9.78L168.36-9.78L168.36-4.99L168.36-4.99Q168.36-4.29 168.72-3.92L168.72-3.92L168.72-3.92Q169.09-3.55 169.80-3.55L169.80-3.55L179.42-3.55ZM198.15-9.88L198.15-9.88L198.15-9.88Q198.15-9.15 197.89-8.29L197.89-8.29L197.89-8.29Q197.63-7.44 197.05-6.71L197.05-6.71L197.05-6.71Q196.46-5.97 195.53-5.48L195.53-5.48L195.53-5.48Q194.59-4.99 193.25-4.99L193.25-4.99L186.84-4.99L186.84-8.37L193.25-8.37L193.25-8.37Q193.98-8.37 194.37-8.81L194.37-8.81L194.37-8.81Q194.77-9.26 194.77-9.91L194.77-9.91L194.77-9.91Q194.77-10.61 194.33-11.01L194.33-11.01L194.33-11.01Q193.88-11.40 193.25-11.40L193.25-11.40L186.84-11.40L186.84-11.40Q186.12-11.40 185.72-10.96L185.72-10.96L185.72-10.96Q185.32-10.51 185.32-9.86L185.32-9.86L185.32-4.89L185.32-4.89Q185.32-4.18 185.77-3.79L185.77-3.79L185.77-3.79Q186.21-3.39 186.87-3.39L186.87-3.39L193.25-3.39L193.25 0L186.84 0L186.84 0Q186.10 0 185.25-0.26L185.25-0.26L185.25-0.26Q184.39-0.52 183.66-1.10L183.66-1.10L183.66-1.10Q182.93-1.68 182.44-2.62L182.44-2.62L182.44-2.62Q181.95-3.55 181.95-4.89L181.95-4.89L181.95-9.88L181.95-9.88Q181.95-10.62 182.21-11.48L182.21-11.48L182.21-11.48Q182.46-12.33 183.05-13.06L183.05-13.06L183.05-13.06Q183.63-13.79 184.56-14.29L184.56-14.29L184.56-14.29Q185.50-14.78 186.84-14.78L186.84-14.78L193.25-14.78L193.25-14.78Q193.99-14.78 194.84-14.52L194.84-14.52L194.84-14.52Q195.70-14.26 196.43-13.68L196.43-13.68L196.43-13.68Q197.16-13.10 197.65-12.16L197.65-12.16L197.65-12.16Q198.15-11.22 198.15-9.88Z" fill="url(#editing-shiny-gradient2)"></path></g></g><style>text {
  font-size: 64px;
  font-family: Arial Black;
  dominant-baseline: central;
  text-anchor: middle;
}</style></svg>